<svg xmlns="http://www.w3.org/2000/svg" version="1.1" xmlns:xlink="http://www.w3.org/1999/xlink" xmlns:svgjs="http://svgjs.dev/svgjs" width="100%" height="100%" viewBox="0 0 1000 600"><rect width="1000" height="600" x="0" y="0" fill="#8bd8bd"/><g><circle r="166.66666666666666" cx="388.44469706217444" cy="410.66693090838453" fill="#243665" transform="matrix(0.5636264617686224,0,0,0.5636264617686224,0,68.53721830742367)"/><path d="M362.8022901130592 419.99411492069765L362.8022901130592 474.42722643339874Q367.6865584974421 475.4864653601324 372.1294773290193 476.66339750094755Q376.57239616059655 477.8403296417627 380.8093518675311 479.5174579424243L380.8093518675311 479.5174579424243L380.8093518675311 485.6669283781835L325.1110383034537 485.6669283781835L325.1110383034537 479.5174579424243Q329.7599202596736 477.398980088957 333.9968759666082 476.3397411622234Q338.2338316735428 475.28050223548973 342.4707873804773 474.42722643339874L342.4707873804773 474.42722643339874L342.4707873804773 348.81914370490097Q336.9686296221665 347.7599047781673 332.7316739152319 346.3770095127095Q328.49471820829734 344.9941142472517 325.1110383034537 343.52294907123274L325.1110383034537 343.52294907123274L325.1110383034537 337.37347863547353L343.7359894318536 337.37347863547353Q352.20990084572276 337.37347863547353 362.2726706496924 336.5202028333826Q372.335440453662 335.66692703129155 381.8685907942647 335.66692703129155L381.8685907942647 335.66692703129155Q392.25501693695855 335.66692703129155 401.25854781419446 338.02079131292186Q410.2620786914305 340.34523229103183 416.82347537647496 345.4354638000574Q423.41429536503983 350.49627200556256 427.1216316086076 358.3522940455037Q430.82896785217537 366.17889278192456 430.82896785217537 377.21263160206666L430.82896785217537 377.21263160206666Q430.82896785217537 392.6598659502656 422.64928947351 402.8403289683167Q414.49903439836504 412.9913686828475 400.522965226185 417.46371081794507L400.522965226185 417.46371081794507Q409.64418931750254 431.85170623941036 419.5892659073906 446.06316183975343Q429.53434249727866 460.2451941365761 440.3621181927781 474.22126330875614L440.3621181927781 474.22126330875614L451.7783599586852 480.3707337445153L451.7783599586852 485.6669283781835L426.1506625924351 485.6669283781835L418.11810073137167 479.7234210670669Q412.17459342025506 472.30874857993143 407.2903250358722 465.2177324315201Q402.43547995500967 458.1267162831088 398.1985242480751 450.82973701005477Q393.96156854114054 443.50333443348046 390.2542322975728 436.0003920357838Q386.546896054005 428.4680263345668 382.72186659635577 419.99411492069765L382.72186659635577 419.99411492069765L362.8022901130592 419.99411492069765ZM377.2197088380449 346.7006658514337L377.2197088380449 346.7006658514337Q372.1294773290193 346.7006658514337 368.86349063825725 346.9066289760763Q365.5680806439748 347.112592100719 362.8022901130592 347.7599047781673L362.8022901130592 347.7599047781673L362.8022901130592 411.1082772575432L378.07298464013587 411.1082772575432Q392.6963664897642 411.1082772575432 401.25854781419446 401.78109004158307Q409.85015244214514 392.45390282562295 409.85015244214514 377.21263160206666L409.85015244214514 377.21263160206666Q409.85015244214514 361.53001082570466 400.7289283508277 354.1153383385692Q391.63712756303056 346.7006658514337 377.2197088380449 346.7006658514337Z " fill="#8bd8bd" transform="matrix(0.5636264617686224,0,0,0.5636264617686224,0,68.53721830742367)"/><path d="M672.4372006867649 420.0999169432459L672.4372006867649 472.5085332529589Q681.3500394046721 473.7456465134886 689.8692511760471 477.37263766367795L689.8692511760471 477.37263766367795L689.8692511760471 483.24892565119416L638.4447022326646 483.24892565119416L638.4447022326646 477.37263766367795Q641.8748799095879 475.7700136670827 645.5299872702437 474.532900406553Q649.1569784204331 473.3239033564899 653.0088992543551 472.5085332529589L653.0088992543551 472.5085332529589L653.0088992543551 352.4804307711108Q648.5665380006349 351.46824719431373 644.9114306399789 350.1467853023842Q641.2844394897895 348.8253234104548 638.4447022326646 347.41951288712556L638.4447022326646 347.41951288712556L638.4447022326646 341.54322489960947L733.3931449783196 341.54322489960947Q733.1682152945868 349.44388004071965 732.6621235061884 357.738162128362Q732.1560317177898 366.03244421600436 731.1438481409928 374.3267263036467L731.1438481409928 374.3267263036467L725.8861167837415 374.3267263036467L717.5918346960992 352.058687614112L672.4372006867649 352.058687614112L672.4372006867649 409.75315149154284L707.4699989281289 409.75315149154284L715.7642810157713 394.79532752332005L720.4315719532242 394.79532752332005Q720.8251988997564 399.4345022503064 721.0220123730226 404.60788497615795Q721.2469420567552 409.75315149154284 721.2469420567552 415.0389990592607L721.2469420567552 415.0389990592607Q721.2469420567552 420.49354388977804 721.0220123730226 425.7512752470293Q720.8251988997564 431.00900660428056 720.4315719532242 435.67629754173356L720.4315719532242 435.67629754173356L715.7642810157713 435.67629754173356L707.4699989281289 420.0999169432459L672.4372006867649 420.0999169432459ZM825.6986639401157 456.7353391812052L825.6986639401157 456.7353391812052Q825.6986639401157 461.1777004349255 825.8954774133817 464.4110646385827Q826.0922908866479 467.6725450527064 826.289104359914 471.2995362028958L826.289104359914 471.2995362028958L840.2628609618063 473.3239033564899L840.2628609618063 477.5694511369441Q835.2019430778212 480.21237492080303 829.0444929856392 482.2367420743971Q822.8589266829907 484.26110922799114 817.1794521687406 485.2732928047882L817.1794521687406 485.2732928047882L812.1185342847555 485.2732928047882Q810.0941671311614 480.60600186733524 809.7005401846292 475.0389921949515Q809.3069132380971 469.4719825225678 809.0819835543643 462.8084406419874L809.0819835543643 462.8084406419874L808.0697999775674 462.8084406419874Q807.282546084503 466.8571749491755 804.9489006157766 470.9902578877634Q802.61525514705 475.1514570368178 798.8757991549943 478.38482124047505Q795.1363431629386 481.6181854441322 790.0754252789534 483.6425525977263Q785.0145073949683 485.66691975132034 778.5196627771872 485.66691975132034L778.5196627771872 485.66691975132034Q766.1766463823568 485.66691975132034 758.3884560831129 478.18800776720894Q750.6002657838691 470.70909578309755 750.6002657838691 458.56289286153316L750.6002657838691 458.56289286153316Q750.6002657838691 449.22831098662715 754.3397217759249 443.2676743677113Q758.0791777679806 437.30703774879544 765.3612762788258 433.8487438614056Q772.6433747896712 430.4185661844823 783.3837671879063 428.90029081928674Q794.1241595861416 427.3820154540912 808.2947296613 426.56664535056024L808.2947296613 426.56664535056024Q809.0819835543643 417.8506201059191 808.8008214496986 410.87779991020625Q808.4915431345661 403.9049797144933 806.5515246123717 398.92841046190796Q804.6396223006441 393.9799574197891 800.9001663085884 391.2526850045304Q797.1607103165327 388.4972963788052 791.0876088557504 388.4972963788052L791.0876088557504 388.4972963788052Q788.2478715986255 388.4972963788052 784.7052290798358 388.8065746939376Q781.1625865610462 389.11585300907 777.7042926736564 390.52166353239926L777.7042926736564 390.52166353239926L768.2010135359509 414.81406937552805L762.9432821786996 414.81406937552805Q760.9189150251055 408.74096791474585 759.40063965991 402.27423950743145Q757.8823642947144 395.8075111001171 757.4606211377156 389.5094799556022L757.4606211377156 389.5094799556022Q765.1644628055598 384.8703052286158 774.5833933118655 382.2273814447569Q784.0023238181712 379.61257387136453 795.5299701094708 379.61257387136453L795.5299701094708 379.61257387136453Q805.8486193507072 379.61257387136453 812.0341856533557 382.5366597598893Q818.1916357455376 385.46074564841405 821.4531161596615 390.12803658586705Q824.6864803633187 394.79532752332005 825.6986639401157 400.44668582710347Q826.7108475169127 406.1261603413535 826.7108475169127 411.7775186451369L826.7108475169127 411.7775186451369Q826.7108475169127 423.9237215667013 826.2047557285142 435.17020575333504Q825.6986639401157 446.41668993996876 825.6986639401157 456.7353391812052ZM786.6171313915635 473.1270898832238L786.6171313915635 473.1270898832238Q791.6780492755487 473.1270898832238 795.5299701094708 471.1027227296297Q799.3818909433928 469.0783555760357 801.9966985167852 466.23861831891065Q804.6396223006441 463.39888106178563 806.270362507706 460.4747951732609Q807.8729865043013 457.5507092847361 808.4915431345661 455.52634213114203L808.4915431345661 455.52634213114203L808.4915431345661 434.27048701840437Q796.7389671595339 434.27048701840437 789.2600551754225 435.47948406846746Q781.7530269808445 436.6884811185306 777.5074792003902 439.3314049023895Q773.2619314199361 441.94621247578186 771.6311912128741 445.91059815157024Q770.0285672162788 449.846867616892 770.0285672162788 454.9077855008772L770.0285672162788 454.9077855008772Q770.0285672162788 463.62381074551826 774.4709284699992 468.37545031437105Q778.941405934186 473.1270898832238 786.6171313915635 473.1270898832238ZM902.2028726196914 483.24892565119416L893.0932204285181 485.66691975132034L853.6180609334339 392.15240373946114Q847.7698891563844 390.12803658586705 842.9057847456652 387.288299328742L842.9057847456652 387.288299328742L842.9057847456652 382.03056797149077L885.2206814978746 382.03056797149077L885.2206814978746 387.0914858554759Q882.5777577140155 388.4972963788052 879.850485298757 389.81875827073463Q877.1232128834982 391.1402201626641 873.6649189961084 392.15240373946114L873.6649189961084 392.15240373946114L897.1419547357062 453.08023182054916L901.1906890428944 465.64817789911234L901.6124321998931 465.64817789911234L904.6489829302842 452.8834183472831L926.2984649895542 392.15240373946114Q923.0651007858969 391.3370336359302 920.3378283706382 390.12803658586705Q917.6105559553796 388.91903953580396 915.1644456447867 387.288299328742L915.1644456447867 387.288299328742L915.1644456447867 382.03056797149077L949.5786872558859 382.03056797149077L949.5786872558859 387.288299328742Q947.5543201022919 388.72222606253786 944.630234213767 389.931223112601Q941.6780321147756 391.1402201626641 938.0510409645864 392.15240373946114L938.0510409645864 392.15240373946114L902.2028726196914 483.24892565119416ZM1000.8064227260023 478.18800776720894L1000.8064227260023 483.24892565119416L955.8486021899342 483.24892565119416L955.8486021899342 478.18800776720894Q958.8851529203253 476.55726756014707 962.1466333344491 475.4607353519503Q965.3799975381063 474.33608693328694 969.2319183720282 473.3239033564899L969.2319183720282 473.3239033564899L969.2319183720282 393.783143946523L955.8486021899342 392.15240373946114L955.8486021899342 386.8946723822099Q961.7248901774502 384.44856207161706 968.6133617417635 382.64912460175566Q975.5018333060765 380.8215709214277 982.3903048703897 379.61257387136453L982.3903048703897 379.61257387136453L987.451222754375 379.61257387136453L987.451222754375 473.3239033564899Q991.499957061563 474.33608693328694 994.7333212652202 475.4607353519503Q997.9666854688775 476.55726756014707 1000.8064227260023 478.18800776720894L1000.8064227260023 478.18800776720894ZM965.3799975381063 347.61632636039167L965.3799975381063 347.61632636039167Q965.3799975381063 342.1617815298743 968.9226400568958 338.90030111575055Q972.4652825756855 335.6669369120934 978.3415705632016 335.6669369120934L978.3415705632016 335.6669369120934Q984.1897423402511 335.6669369120934 987.648036227641 338.90030111575055Q991.0782139045642 342.1617815298743 991.0782139045642 347.61632636039167L991.0782139045642 347.61632636039167Q991.0782139045642 353.07087119090903 987.648036227641 356.21988676316647Q984.1897423402511 359.3689023354239 978.3415705632016 359.3689023354239L978.3415705632016 359.3689023354239Q972.4652825756855 359.3689023354239 968.9226400568958 356.21988676316647Q965.3799975381063 353.07087119090903 965.3799975381063 347.61632636039167ZM1092.2965715842674 466.23861831891065L1094.9394953681262 469.0783555760357Q1091.2843880074706 476.16364061361486 1083.1025707616946 480.9152801824676Q1074.892637305452 485.66691975132034 1063.9554314339507 485.66691975132034L1063.9554314339507 485.66691975132034Q1052.0060419856522 485.66691975132034 1043.2056681096115 481.92746375926464Q1034.4052942335707 478.18800776720894 1028.5290062460545 471.2151875714961Q1022.6527182585384 464.2142511653166 1019.7286323700135 454.4016937124787Q1016.8045464814888 444.5891362596408 1016.8045464814888 432.63974681134243L1016.8045464814888 432.63974681134243Q1016.8045464814888 406.94153044488445 1029.3443763495854 393.2770521581245Q1041.884206217682 379.61257387136453 1063.5618044874186 379.61257387136453L1063.5618044874186 379.61257387136453Q1073.4868267821225 379.61257387136453 1081.2750170813665 381.3276627098262Q1089.0632073806105 383.0427515482878 1094.5177522111276 385.88248880541283L1094.5177522111276 385.88248880541283Q1093.9273117913294 392.5460306859933 1092.2965715842674 400.86842898410225Q1090.6939475876725 409.1627110717446 1088.2478372770793 414.61725590226195L1088.2478372770793 414.61725590226195L1082.7932924465622 414.61725590226195L1074.2740806751872 390.52166353239926Q1072.8682701518578 389.5094799556022 1071.0407164715298 389.0033881672037Q1069.2131627912017 388.4972963788052 1064.9676150107475 388.4972963788052L1064.9676150107475 388.4972963788052Q1051.218788092588 388.4972963788052 1043.7117598980099 398.53478351537575Q1036.2328479138987 408.54415444147975 1036.2328479138987 432.44293333807633L1036.2328479138987 432.44293333807633Q1036.2328479138987 440.1186587954539 1038.3415636988925 447.4288735167658Q1040.478395694353 454.7109720276111 1044.8364083166734 460.4747951732609Q1049.194420938994 466.23861831891065 1055.7736141881746 469.6969122063005Q1062.3528074373553 473.1270898832238 1071.0407164715298 473.1270898832238L1071.0407164715298 473.1270898832238Q1078.126001509109 473.1270898832238 1083.3837328663603 471.1027227296297Q1088.6695804340782 469.0783555760357 1092.2965715842674 466.23861831891065L1092.2965715842674 466.23861831891065ZM1107.4793252362228 432.63974681134243L1107.4793252362228 432.63974681134243Q1107.4793252362228 419.8749872595132 1110.8251542817466 410.0624298066753Q1114.1709833272703 400.24987235383736 1120.4408982613186 393.4738656313906Q1126.7108131953669 386.6978589089438 1135.5111870714077 383.1552163901542Q1144.339677157915 379.61257387136453 1155.0519533456836 379.61257387136453L1155.0519533456836 379.61257387136453Q1167.6198994242468 379.61257387136453 1176.72955161542 383.43637849482Q1185.8392038065933 387.288299328742 1191.6030269522432 394.28923573492153Q1197.366850097893 401.2620559306344 1200.0941225131514 410.99026475207256Q1202.8213949284102 420.69035736304414 1202.8213949284102 432.63974681134243L1202.8213949284102 432.63974681134243Q1202.8213949284102 458.14114970453437 1189.8879381137815 471.91809283316064Q1176.9263650886862 485.66691975132034 1155.0519533456836 485.66691975132034L1155.0519533456836 485.66691975132034Q1142.905750424119 485.66691975132034 1133.992911706212 481.92746375926464Q1125.1081891987715 478.18800776720894 1119.2319012112553 471.2151875714961Q1113.355613223739 464.2142511653166 1110.4315273352145 454.4016937124787Q1107.4793252362228 444.5891362596408 1107.4793252362228 432.63974681134243ZM1126.907626668633 432.63974681134243L1126.907626668633 432.63974681134243Q1126.907626668633 441.74939900251576 1128.650831717561 449.846867616892Q1130.3659205560225 457.94433623126827 1134.1053765480783 463.90497285018415Q1137.8448325401341 469.89372567956656 1143.9179340009164 473.3239033564899Q1149.9910354616984 476.78219724387975 1158.5102472330736 476.78219724387975L1158.5102472330736 476.78219724387975Q1169.4193368941083 476.78219724387975 1176.4202733002876 466.04180484564455Q1183.3930934960006 455.30141244740935 1183.3930934960006 432.63974681134243L1183.3930934960006 432.63974681134243Q1183.3930934960006 423.33328114690306 1181.678004657539 415.32016116392657Q1179.9629158190774 407.3351573914166 1176.3078084584213 401.3745207725008Q1172.6808173082318 395.3857679431183 1167.001342793982 391.95559026619503Q1161.321868279732 388.4972963788052 1153.4493293490882 388.4972963788052L1153.4493293490882 388.4972963788052Q1141.4999399007902 388.4972963788052 1134.2178413899446 399.2376887770404Q1126.907626668633 409.9780811752756 1126.907626668633 432.63974681134243ZM1327.9385315047102 478.18800776720894L1327.9385315047102 483.24892565119416L1284.4146377024376 483.24892565119416L1284.4146377024376 478.18800776720894Q1289.8691825329552 475.348270510084 1296.364027150736 473.3239033564899L1296.364027150736 473.3239033564899L1296.364027150736 425.35764830049715Q1296.364027150736 409.9780811752756 1291.8935496865492 401.06524245736836Q1287.451188432829 392.15240373946114 1275.6986124577966 392.15240373946114L1275.6986124577966 392.15240373946114Q1270.6376945738116 392.15240373946114 1266.3077981619576 393.9799574197891Q1261.949785539637 395.8075111001171 1258.6039564941134 398.92841046190796Q1255.2581274485897 402.0774260341654 1252.8401333484635 406.01369549948714Q1250.3940230378707 409.9780811752756 1248.9882125145414 414.2236289557298L1248.9882125145414 414.2236289557298L1248.9882125145414 473.3239033564899Q1255.2581274485897 474.532900406553 1261.1344154361059 478.18800776720894L1261.1344154361059 478.18800776720894L1261.1344154361059 483.24892565119416L1217.4137081605675 483.24892565119416L1217.4137081605675 478.18800776720894Q1222.4746260445527 475.54508398335 1230.768908132195 473.3239033564899L1230.768908132195 473.3239033564899L1230.768908132195 393.783143946523L1217.4137081605675 392.15240373946114L1217.4137081605675 386.8946723822099Q1222.6714395178187 384.6734917553497 1229.559911082132 382.8459380750217Q1236.448382646445 381.0183843946938 1243.9272946305564 379.61257387136453L1243.9272946305564 379.61257387136453L1248.9882125145414 379.61257387136453L1248.9882125145414 402.27423950743145L1249.1850259878079 402.27423950743145Q1253.4305737682616 392.9677738429921 1261.4436937512382 386.276115751945Q1269.4286975237483 379.61257387136453 1280.7595303417816 379.61257387136453L1280.7595303417816 379.61257387136453Q1288.856998956158 379.61257387136453 1295.2393787320725 381.5244761830923Q1301.6217585079871 383.43637849482 1305.8673062884413 388.30048290553907Q1310.1128540688956 393.1645873162582 1312.3621509062223 401.3745207725008Q1314.5833315330824 409.5563380182768 1314.5833315330824 422.12428409684L1314.5833315330824 422.12428409684L1314.5833315330824 473.3239033564899Q1322.6808001474587 474.75783009028567 1327.9385315047102 478.18800776720894L1327.9385315047102 478.18800776720894ZM1345.7642089405244 471.7212793598946L1345.7642089405244 471.7212793598946Q1345.7642089405244 465.64817789911234 1349.58801356398 461.99307053845644Q1353.439934397902 458.3379631778005 1359.5130358586844 458.3379631778005L1359.5130358586844 458.3379631778005Q1365.7829507927327 458.3379631778005 1369.6348716266543 461.99307053845644Q1373.4867924605765 465.64817789911234 1373.4867924605765 471.7212793598946L1373.4867924605765 471.7212793598946Q1373.4867924605765 477.5694511369441 1369.6348716266543 481.22455849760007Q1365.7829507927327 484.87966585825603 1359.5130358586844 484.87966585825603L1359.5130358586844 484.87966585825603Q1353.439934397902 484.87966585825603 1349.58801356398 481.22455849760007Q1345.7642089405244 477.5694511369441 1345.7642089405244 471.7212793598946ZM1441.1062786327116 478.18800776720894L1441.1062786327116 483.24892565119416L1396.1484580966435 483.24892565119416L1396.1484580966435 478.18800776720894Q1399.1850088270348 476.55726756014707 1402.4464892411584 475.4607353519503Q1405.6798534448158 474.33608693328694 1409.5317742787374 473.3239033564899L1409.5317742787374 473.3239033564899L1409.5317742787374 393.783143946523L1396.1484580966435 392.15240373946114L1396.1484580966435 386.8946723822099Q1402.0247460841597 384.44856207161706 1408.9132176484727 382.64912460175566Q1415.8016892127857 380.8215709214277 1422.6901607770992 379.61257387136453L1422.6901607770992 379.61257387136453L1427.7510786610842 379.61257387136453L1427.7510786610842 473.3239033564899Q1431.7998129682724 474.33608693328694 1435.0331771719298 475.4607353519503Q1438.2665413755867 476.55726756014707 1441.1062786327116 478.18800776720894L1441.1062786327116 478.18800776720894ZM1405.6798534448158 347.61632636039167L1405.6798534448158 347.61632636039167Q1405.6798534448158 342.1617815298743 1409.222495963605 338.90030111575055Q1412.7651384823948 335.6669369120934 1418.641426469911 335.6669369120934L1418.641426469911 335.6669369120934Q1424.4895982469607 335.6669369120934 1427.9478921343502 338.90030111575055Q1431.3780698112737 342.1617815298743 1431.3780698112737 347.61632636039167L1431.3780698112737 347.61632636039167Q1431.3780698112737 353.07087119090903 1427.9478921343502 356.21988676316647Q1424.4895982469607 359.3689023354239 1418.641426469911 359.3689023354239L1418.641426469911 359.3689023354239Q1412.7651384823948 359.3689023354239 1409.222495963605 356.21988676316647Q1405.6798534448158 353.07087119090903 1405.6798534448158 347.61632636039167ZM1457.1044023881982 432.63974681134243L1457.1044023881982 432.63974681134243Q1457.1044023881982 419.8749872595132 1460.4221152232553 410.0624298066753Q1463.7679442687786 400.24987235383736 1470.037859202827 393.4738656313906Q1476.3358903473418 386.6978589089438 1485.1362642233826 383.1552163901542Q1493.9366380994234 379.61257387136453 1504.6770304976585 379.61257387136453L1504.6770304976585 379.61257387136453Q1517.2168603657556 379.61257387136453 1526.3265125569287 383.43637849482Q1535.4361647481019 387.288299328742 1541.1999878937518 394.28923573492153Q1546.9638110394017 401.2620559306344 1549.7191996651268 410.99026475207256Q1552.4464720803853 420.69035736304414 1552.4464720803853 432.63974681134243L1552.4464720803853 432.63974681134243Q1552.4464720803853 458.14114970453437 1539.48489905529 471.91809283316064Q1526.5233260301948 485.66691975132034 1504.6770304976585 485.66691975132034L1504.6770304976585 485.66691975132034Q1492.5308275760945 485.66691975132034 1483.6179888581873 481.92746375926464Q1474.7051501402798 478.18800776720894 1468.828862152764 471.2151875714961Q1462.9525741652478 464.2142511653166 1460.0284882767232 454.4016937124787Q1457.1044023881982 444.5891362596408 1457.1044023881982 432.63974681134243ZM1476.5327038206078 432.63974681134243L1476.5327038206078 432.63974681134243Q1476.5327038206078 441.74939900251576 1478.2477926590695 449.846867616892Q1479.9628814975313 457.94433623126827 1483.702337489587 463.90497285018415Q1487.469909692109 469.89372567956656 1493.5430111528913 473.3239033564899Q1499.6161126136735 476.78219724387975 1508.107208174582 476.78219724387975L1508.107208174582 476.78219724387975Q1519.0444140460836 476.78219724387975 1526.017234241796 466.04180484564455Q1533.0181706479757 455.30141244740935 1533.0181706479757 432.63974681134243L1533.0181706479757 432.63974681134243Q1533.0181706479757 423.33328114690306 1531.2749655990474 415.32016116392657Q1529.5598767605857 407.3351573914166 1525.9328856103966 401.3745207725008Q1522.2777782497405 395.3857679431183 1516.5983037354904 391.95559026619503Q1510.9469454317073 388.4972963788052 1503.046290290597 388.4972963788052L1503.046290290597 388.4972963788052Q1491.0969008422985 388.4972963788052 1483.8148023314534 399.2376887770404Q1476.5327038206078 409.9780811752756 1476.5327038206078 432.63974681134243Z " fill="#243665" transform="matrix(0.5636264617686224,0,0,0.5636264617686224,0,68.53721830742367)"/></g></svg>